<mxfile host="Electron" agent="Mozilla/5.0 (X11; Linux x86_64) AppleWebKit/537.36 (KHTML, like Gecko) draw.io/26.0.4 Chrome/128.0.6613.186 Electron/32.2.5 Safari/537.36" version="26.0.4">
  <diagram name="Page-1" id="Pv8iRH-qQZAGBj4EnxWJ">
    <mxGraphModel dx="1114" dy="1198" grid="1" gridSize="10" guides="1" tooltips="1" connect="1" arrows="1" fold="1" page="1" pageScale="1" pageWidth="850" pageHeight="1100" math="0" shadow="0">
      <root>
        <mxCell id="0" />
        <mxCell id="1" parent="0" />
        <mxCell id="1KrrfGTorWVjZ8kU4iRO-2" value="Auto Scaling group" style="points=[[0,0],[0.25,0],[0.5,0],[0.75,0],[1,0],[1,0.25],[1,0.5],[1,0.75],[1,1],[0.75,1],[0.5,1],[0.25,1],[0,1],[0,0.75],[0,0.5],[0,0.25]];outlineConnect=0;gradientColor=none;html=1;whiteSpace=wrap;fontSize=12;fontStyle=0;container=1;pointerEvents=0;collapsible=0;recursiveResize=0;shape=mxgraph.aws4.groupCenter;grIcon=mxgraph.aws4.group_auto_scaling_group;grStroke=1;strokeColor=#D86613;fillColor=none;verticalAlign=top;align=center;fontColor=#D86613;dashed=1;spacingTop=25;" vertex="1" parent="1">
          <mxGeometry x="60" y="390" width="520" height="120" as="geometry" />
        </mxCell>
        <mxCell id="1KrrfGTorWVjZ8kU4iRO-3" value="" style="sketch=0;outlineConnect=0;fontColor=#232F3E;gradientColor=none;fillColor=#ED7100;strokeColor=none;dashed=0;verticalLabelPosition=bottom;verticalAlign=top;align=center;html=1;fontSize=12;fontStyle=0;aspect=fixed;pointerEvents=1;shape=mxgraph.aws4.instance2;" vertex="1" parent="1KrrfGTorWVjZ8kU4iRO-2">
          <mxGeometry x="21" y="60" width="48" height="48" as="geometry" />
        </mxCell>
        <mxCell id="1KrrfGTorWVjZ8kU4iRO-4" value="" style="sketch=0;outlineConnect=0;fontColor=#232F3E;gradientColor=none;fillColor=#ED7100;strokeColor=none;dashed=0;verticalLabelPosition=bottom;verticalAlign=top;align=center;html=1;fontSize=12;fontStyle=0;aspect=fixed;pointerEvents=1;shape=mxgraph.aws4.instance2;" vertex="1" parent="1KrrfGTorWVjZ8kU4iRO-2">
          <mxGeometry x="81" y="60" width="48" height="48" as="geometry" />
        </mxCell>
        <mxCell id="1KrrfGTorWVjZ8kU4iRO-5" value="" style="sketch=0;outlineConnect=0;fontColor=#232F3E;gradientColor=none;fillColor=#ED7100;strokeColor=none;dashed=0;verticalLabelPosition=bottom;verticalAlign=top;align=center;html=1;fontSize=12;fontStyle=0;aspect=fixed;pointerEvents=1;shape=mxgraph.aws4.instance2;" vertex="1" parent="1KrrfGTorWVjZ8kU4iRO-2">
          <mxGeometry x="141" y="60" width="48" height="48" as="geometry" />
        </mxCell>
        <mxCell id="1KrrfGTorWVjZ8kU4iRO-6" value="" style="sketch=0;outlineConnect=0;fontColor=#232F3E;gradientColor=none;fillColor=#ED7100;strokeColor=none;dashed=0;verticalLabelPosition=bottom;verticalAlign=top;align=center;html=1;fontSize=12;fontStyle=0;aspect=fixed;pointerEvents=1;shape=mxgraph.aws4.instance2;" vertex="1" parent="1KrrfGTorWVjZ8kU4iRO-2">
          <mxGeometry x="201" y="60" width="48" height="48" as="geometry" />
        </mxCell>
        <mxCell id="1KrrfGTorWVjZ8kU4iRO-7" value="" style="sketch=0;outlineConnect=0;fontColor=#232F3E;gradientColor=none;fillColor=#ED7100;strokeColor=none;dashed=0;verticalLabelPosition=bottom;verticalAlign=top;align=center;html=1;fontSize=12;fontStyle=0;aspect=fixed;pointerEvents=1;shape=mxgraph.aws4.instance2;" vertex="1" parent="1KrrfGTorWVjZ8kU4iRO-2">
          <mxGeometry x="331" y="60" width="48" height="48" as="geometry" />
        </mxCell>
        <mxCell id="1KrrfGTorWVjZ8kU4iRO-8" value="" style="sketch=0;outlineConnect=0;fontColor=#232F3E;gradientColor=none;fillColor=#ED7100;strokeColor=none;dashed=0;verticalLabelPosition=bottom;verticalAlign=top;align=center;html=1;fontSize=12;fontStyle=0;aspect=fixed;pointerEvents=1;shape=mxgraph.aws4.instance2;" vertex="1" parent="1KrrfGTorWVjZ8kU4iRO-2">
          <mxGeometry x="391" y="60" width="48" height="48" as="geometry" />
        </mxCell>
        <mxCell id="1KrrfGTorWVjZ8kU4iRO-9" value="" style="sketch=0;outlineConnect=0;fontColor=#232F3E;gradientColor=none;fillColor=#ED7100;strokeColor=none;dashed=0;verticalLabelPosition=bottom;verticalAlign=top;align=center;html=1;fontSize=12;fontStyle=0;aspect=fixed;pointerEvents=1;shape=mxgraph.aws4.instance2;" vertex="1" parent="1KrrfGTorWVjZ8kU4iRO-2">
          <mxGeometry x="451" y="60" width="48" height="48" as="geometry" />
        </mxCell>
        <mxCell id="1KrrfGTorWVjZ8kU4iRO-10" value="" style="rounded=0;whiteSpace=wrap;html=1;fillColor=none;dashed=1;" vertex="1" parent="1KrrfGTorWVjZ8kU4iRO-2">
          <mxGeometry x="386" y="54" width="120" height="60" as="geometry" />
        </mxCell>
        <mxCell id="1KrrfGTorWVjZ8kU4iRO-11" value="&amp;nbsp;trigger scaling&amp;nbsp;" style="edgeStyle=orthogonalEdgeStyle;rounded=0;orthogonalLoop=1;jettySize=auto;html=1;" edge="1" parent="1" source="1KrrfGTorWVjZ8kU4iRO-12" target="1KrrfGTorWVjZ8kU4iRO-2">
          <mxGeometry relative="1" as="geometry" />
        </mxCell>
        <mxCell id="1KrrfGTorWVjZ8kU4iRO-12" value="CloudWatch Alarm" style="sketch=0;outlineConnect=0;fontColor=#232F3E;gradientColor=none;fillColor=#E7157B;strokeColor=none;dashed=0;verticalLabelPosition=bottom;verticalAlign=top;align=center;html=1;fontSize=12;fontStyle=0;aspect=fixed;pointerEvents=1;shape=mxgraph.aws4.alarm;" vertex="1" parent="1">
          <mxGeometry x="720" y="411" width="78" height="78" as="geometry" />
        </mxCell>
      </root>
    </mxGraphModel>
  </diagram>
</mxfile>
